<?xml version="1.0" encoding="UTF-8"?>
<svg width="48px" height="48px" viewBox="0 0 48 48" version="1.1" xmlns="http://www.w3.org/2000/svg" xmlns:xlink="http://www.w3.org/1999/xlink">
    <!-- Generator: Sketch 63.1 (92452) - https://sketch.com -->
    <title>Visual/Icons/Arrow/Up</title>
    <desc>Created with Sketch.</desc>
    <defs>
        <path d="M43.6963796,31.5529217 L26.1493748,14.6808016 L24.7026802,13.2910312 L24.6600127,13.2500048 C24.5026764,13.0987199 24.2973391,13.0282057 24.085335,13.0141028 C24.0560011,13.0115387 24.0280005,13.0012821 23.9986666,13 C23.9733328,13.0012821 23.9493324,13.0102566 23.9239985,13.0128208 C23.7079944,13.0256415 23.498657,13.0961557 23.3386539,13.2500048 L23.2959864,13.2910312 L21.8492919,14.6808016 L4.30362041,31.5516396 C3.91561293,31.9247237 3.89694591,32.5119145 4.26228628,32.8632033 L5.75164832,34.2952822 C6.11565533,34.6478531 6.72633377,34.628622 7.11434125,34.2555378 L24,18.0206096 L40.8843254,34.2568199 C41.2723329,34.628622 41.8830113,34.6478531 42.2483517,34.2965643 L43.7377137,32.8644854 C44.1030541,32.5144786 44.0843871,31.9272878 43.6963796,31.5529217 Z" id="path-1"></path>
    </defs>
    <g id="Visual/Icons/Arrow/Up" stroke="none" stroke-width="1" fill="none" fill-rule="evenodd">
        <mask id="mask-2" fill="white">
            <use xlink:href="#path-1"></use>
        </mask>
        <use id="🎨-Icon-Color" fill="#333333" xlink:href="#path-1"></use>
    </g>
</svg>